<?xml version="1.0" encoding="utf-8"?>
<!-- Generator: Adobe Illustrator 27.7.0, SVG Export Plug-In . SVG Version: 6.00 Build 0)  -->
<svg version="1.1" id="Layer_1" xmlns="http://www.w3.org/2000/svg" xmlns:xlink="http://www.w3.org/1999/xlink" x="0px" y="0px"
	 viewBox="0 0 910.07 910.07" style="enable-background:new 0 0 910.07 910.07;" xml:space="preserve">
<style type="text/css">
	.st0{fill:#FFFFFF;}
</style>
<rect x="0.04" y="0.04" class="st0" width="910" height="910"/>
<g>
	<g>
		<path d="M718.89,122.03c1.66,0,2.81,1.13,3.48,3.36c0.66,2.24,0.5,4.18-0.5,5.8c-16.91,20.38-31.92,43.08-45.02,68.13
			c-13.11,25.05-24.13,50.82-33.08,77.3c-8.95,26.49-15.67,52.66-20.15,78.52c-4.48,25.87-6.72,49.6-6.72,71.19
			c0,22,2.15,39.21,6.47,51.63c4.31,12.43,10.28,18.64,17.91,18.64c6.63,0,13.01-3.05,19.15-9.17c6.13-6.11,12.19-14.67,18.16-25.66
			c1-0.81,2.07-0.81,3.23,0c1.16,0.82,1.57,2.24,1.24,4.28c-3.65,6.93-7.8,13.75-12.44,20.47c-4.65,6.72-9.7,12.83-15.17,18.33
			c-5.47,5.5-11.03,9.99-16.67,13.44c-5.64,3.47-11.12,5.19-16.42,5.19c-12.27,0-21.39-6.92-27.36-20.78
			c-5.97-13.84-8.95-32.39-8.95-55.61c0-19.14,1.82-40.43,5.47-63.86c3.65-23.42,9.03-47.36,16.17-71.8
			c7.13-24.44,15.75-48.37,25.87-71.8c10.11-23.42,21.64-44.5,34.57-63.24c-19.9,18.33-40.46,40.33-61.68,65.99
			c-21.23,25.66-41.71,53.07-61.44,82.19c-19.73,29.13-38.14,59.18-55.22,90.13c-17.08,30.96-31.26,61.11-42.53,90.44
			c-0.67,1.63-1.99,3.57-3.98,5.81c-1.99,2.24-4.31,4.28-6.96,6.11c-2.66,1.83-5.31,3.36-7.96,4.58c-2.66,1.22-4.97,1.83-6.96,1.83
			c-2.66,0-3.65-1.42-2.98-4.28c6.3-63.14,15.34-119.36,27.11-168.65c11.77-49.29,25.62-94.71,41.54-136.27
			c-26.54,48.88-52.48,92.58-77.85,131.07c-25.37,38.5-50.91,70.88-76.61,97.16c-25.7,26.28-51.82,46.34-78.35,60.19
			c-26.54,13.85-53.9,20.78-82.08,20.78c-31.18,0-55.14-9.57-71.88-28.72c-16.75-19.14-25.12-44.4-25.12-75.77
			c0-20.78,4.8-39.41,14.43-55.91c9.61-16.5,22.88-28.61,39.8-36.36c1.32-0.81,2.24-0.4,2.74,1.22c0.5,1.63,0.41,3.06-0.25,4.28
			c-10.28,8.15-17.5,17.52-21.64,28.11c-4.15,10.6-6.22,24.44-6.22,41.55c0,13.44,1.82,26.18,5.47,38.19
			c3.65,12.02,8.95,22.61,15.92,31.78c6.96,9.17,15.75,16.4,26.37,21.69c10.61,5.3,22.88,7.94,36.81,7.94
			c28.85,0,56.46-8.14,82.83-24.44c26.37-16.29,52.06-38.59,77.11-66.91c25.04-28.31,49.58-61.61,73.62-99.91
			c24.04-38.29,48-79.44,71.88-123.43c-23.22-9.78-47.51-18.03-72.88-24.75c-25.37-6.72-49.83-10.08-73.38-10.08
			c-26.86,0-47.59,9.27-62.18,27.8c-14.6,18.54-23.55,43.49-26.86,74.85c-0.67,2.04-1.58,2.85-2.74,2.44
			c-1.17-0.4-1.91-1.62-2.24-3.67c3.65-40.33,15.58-71.08,35.82-92.27c20.22-21.18,46.59-31.77,79.1-31.77
			c13.26,0,27.36,1.13,42.28,3.36c14.92,2.24,29.6,5.19,44.02,8.86c14.43,3.67,28.18,7.64,41.29,11.92
			c13.1,4.28,24.62,8.46,34.57,12.53c1.32-0.4,2.98-1.01,4.97-1.83c1.32,0.41,2.15,1.43,2.49,3.06c0.33,1.63,0.16,3.06-0.5,4.28
			c-4.65,3.27-8.54,7.64-11.69,13.14c-3.16,5.5-6.55,12.33-10.2,20.47c-16.59,41.15-29.77,84.02-39.55,128.63
			c-9.79,44.61-17.83,89.73-24.13,135.35c15.25-33.81,33.24-67.72,53.97-101.74c20.72-34.01,42.86-66.3,66.41-96.85
			c23.54-30.55,47.83-58.66,72.88-84.33C670.55,160.52,695.01,139.14,718.89,122.03z"/>
	</g>
	<g>
		<path d="M855.89,312.03c1.66,0,2.81,1.13,3.48,3.36c0.66,2.24,0.5,4.18-0.5,5.8c-16.91,20.38-31.92,43.08-45.02,68.13
			c-13.11,25.05-24.13,50.82-33.08,77.3c-8.95,26.49-15.67,52.66-20.15,78.52c-4.48,25.87-6.72,49.6-6.72,71.19
			c0,22,2.15,39.21,6.47,51.63c4.31,12.43,10.28,18.64,17.91,18.64c6.63,0,13.01-3.05,19.15-9.17c6.13-6.11,12.19-14.67,18.16-25.66
			c1-0.81,2.07-0.81,3.23,0c1.16,0.82,1.57,2.24,1.24,4.28c-3.65,6.93-7.8,13.75-12.44,20.47c-4.65,6.72-9.7,12.83-15.17,18.33
			c-5.47,5.5-11.03,9.99-16.67,13.44c-5.64,3.47-11.12,5.19-16.42,5.19c-12.27,0-21.39-6.92-27.36-20.78
			c-5.97-13.84-8.95-32.39-8.95-55.61c0-19.14,1.82-40.43,5.47-63.86c3.65-23.42,9.03-47.36,16.17-71.8
			c7.13-24.44,15.75-48.37,25.87-71.8c10.11-23.42,21.64-44.5,34.57-63.24c-19.9,18.33-40.46,40.33-61.68,65.99
			c-21.23,25.66-41.71,53.07-61.44,82.19c-19.73,29.13-38.14,59.18-55.22,90.13c-17.08,30.96-31.26,61.11-42.53,90.44
			c-0.67,1.63-1.99,3.57-3.98,5.81c-1.99,2.24-4.31,4.28-6.96,6.11c-2.66,1.83-5.31,3.36-7.96,4.58c-2.66,1.22-4.97,1.83-6.96,1.83
			c-2.66,0-3.65-1.42-2.98-4.28c6.3-63.14,15.33-119.36,27.11-168.65c11.77-49.29,25.62-94.71,41.54-136.27
			c-26.54,48.88-52.48,92.58-77.85,131.07c-25.37,38.5-50.91,70.88-76.61,97.16c-25.71,26.28-51.82,46.34-78.35,60.19
			c-26.54,13.85-53.9,20.78-82.08,20.78c-31.18,0-55.14-9.57-71.88-28.72c-16.75-19.14-25.12-44.4-25.12-75.77
			c0-20.78,4.8-39.41,14.43-55.91c9.61-16.5,22.88-28.61,39.8-36.36c1.32-0.81,2.24-0.4,2.74,1.22c0.5,1.63,0.41,3.06-0.25,4.28
			c-10.28,8.15-17.5,17.52-21.64,28.11c-4.15,10.6-6.22,24.44-6.22,41.55c0,13.44,1.82,26.18,5.47,38.19
			c3.65,12.02,8.95,22.61,15.92,31.78c6.96,9.17,15.75,16.4,26.37,21.69c10.61,5.3,22.88,7.94,36.81,7.94
			c28.85,0,56.46-8.14,82.83-24.44c26.37-16.29,52.06-38.59,77.11-66.91c25.04-28.31,49.58-61.61,73.62-99.91
			c24.04-38.29,48-79.44,71.88-123.43c-23.22-9.78-47.51-18.03-72.88-24.75c-25.37-6.72-49.83-10.08-73.38-10.08
			c-26.86,0-47.59,9.27-62.18,27.8c-14.6,18.54-23.55,43.49-26.86,74.85c-0.67,2.04-1.58,2.85-2.74,2.44
			c-1.17-0.4-1.91-1.62-2.24-3.67c3.65-40.33,15.58-71.08,35.82-92.27c20.22-21.18,46.59-31.77,79.1-31.77
			c13.26,0,27.36,1.13,42.28,3.36c14.92,2.24,29.6,5.19,44.02,8.86c14.43,3.67,28.18,7.64,41.29,11.92
			c13.1,4.28,24.62,8.46,34.57,12.53c1.32-0.4,2.98-1.01,4.97-1.83c1.32,0.41,2.15,1.43,2.49,3.06c0.33,1.63,0.16,3.06-0.5,4.28
			c-4.65,3.27-8.54,7.64-11.69,13.14c-3.16,5.5-6.55,12.33-10.2,20.47c-16.59,41.15-29.77,84.02-39.55,128.63
			c-9.79,44.61-17.83,89.73-24.13,135.35c15.25-33.81,33.24-67.72,53.97-101.74c20.72-34.01,42.86-66.3,66.41-96.85
			c23.54-30.55,47.83-58.66,72.88-84.33C807.55,350.52,832.01,329.14,855.89,312.03z"/>
	</g>
</g>
</svg>
